<svg version="1.1" viewBox="0.0 0.0 960.0 720.0" fill="none" stroke="none" stroke-linecap="square" stroke-miterlimit="10" xmlns:xlink="http://www.w3.org/1999/xlink" xmlns="http://www.w3.org/2000/svg"><clipPath id="p.0"><path d="m0 0l960.0 0l0 720.0l-960.0 0l0 -720.0z" clip-rule="nonzero"/></clipPath><g clip-path="url(#p.0)"><path fill="#000000" fill-opacity="0.0" d="m0 0l960.0 0l0 720.0l-960.0 0z" fill-rule="evenodd"/><path fill="#000000" fill-opacity="0.0" d="m80.0 546.6684l802.1102 -386.77167" fill-rule="evenodd"/><path stroke="#000000" stroke-width="12.0" stroke-linejoin="round" stroke-linecap="butt" d="m117.04343 528.80634l724.1007 -349.15604" fill-rule="evenodd"/><path fill="#000000" stroke="#000000" stroke-width="12.0" stroke-linecap="butt" d="m117.04343 528.80634l6.294281 -18.016998l-27.535988 28.259552l39.258705 -3.9483032z" fill-rule="evenodd"/><path fill="#000000" stroke="#000000" stroke-width="12.0" stroke-linecap="butt" d="m876.70575 162.50273c4.7351685 9.820084 0.6130371 21.619446 -9.207092 26.354614c-9.820068 4.7351685 -21.619385 0.6130371 -26.354553 -9.2070465c-4.7351685 -9.820068 -0.6130371 -21.61943 9.207031 -26.354599c9.820068 -4.7351685 21.619446 -0.6130371 26.354614 9.207031z" fill-rule="nonzero"/><path fill="#000000" fill-opacity="0.0" d="m651.2515 270.54996l36.944885 -208.62993" fill-rule="evenodd"/><path stroke="#000000" stroke-width="12.0" stroke-linejoin="round" stroke-linecap="butt" d="m651.2516 270.54996l29.014465 -163.84668" fill-rule="evenodd"/><path fill="#000000" stroke="#000000" stroke-width="12.0" stroke-linecap="butt" d="m687.1502 67.82811c10.735107 1.901001 17.896545 12.144577 15.995544 22.879654c-1.901001 10.735085 -12.144592 17.896523 -22.8797 15.995514c-10.735046 -1.901001 -17.896484 -12.144577 -15.995483 -22.879654c1.901001 -10.735085 12.144592 -17.896515 22.879639 -15.995514z" fill-rule="nonzero"/><path fill="#000000" fill-opacity="0.0" d="m651.2515 270.54926l154.96063 133.5748" fill-rule="evenodd"/><path stroke="#000000" stroke-width="12.0" stroke-linejoin="round" stroke-linecap="butt" d="m651.2516 270.54926l120.51227 103.880615" fill-rule="evenodd"/><path fill="#000000" stroke="#000000" stroke-width="12.0" stroke-linecap="butt" d="m801.66754 400.20663c-7.118042 8.25766 -19.58252 9.181519 -27.84021 2.063446c-8.257629 -7.118042 -9.181519 -19.58252 -2.0634766 -27.84018c7.118042 -8.25769 19.58258 -9.181549 27.84021 -2.0634766c8.25769 7.118042 9.181519 19.58252 2.0634766 27.84021z" fill-rule="nonzero"/><path fill="#000000" fill-opacity="0.0" d="m322.73822 428.54236l-26.362213 208.8504" fill-rule="evenodd"/><path stroke="#000000" stroke-width="12.0" stroke-linejoin="round" stroke-linecap="butt" d="m322.73822 428.54236l-21.212067 168.04913" fill-rule="evenodd"/><path fill="#000000" stroke="#000000" stroke-width="12.0" stroke-linecap="butt" d="m301.52615 596.5915l-11.698761 -15.078796l8.745514 38.47534l18.032013 -35.095337z" fill-rule="evenodd"/><path fill="#000000" fill-opacity="0.0" d="m322.73822 428.54205l-139.93701 -150.55118" fill-rule="evenodd"/><path stroke="#000000" stroke-width="12.0" stroke-linejoin="round" stroke-linecap="butt" d="m322.73822 428.54202l-111.93846 -120.428925" fill-rule="evenodd"/><path fill="#000000" stroke="#000000" stroke-width="12.0" stroke-linecap="butt" d="m210.79976 308.11313l19.072098 0.6968689l-35.127228 -17.969788l15.358261 36.345z" fill-rule="evenodd"/></g></svg>